<svg width="24" height="24" viewBox="0 0 24 24" fill="none" xmlns="http://www.w3.org/2000/svg">
<path fill-rule="evenodd" clip-rule="evenodd" d="M7.55884 3.92977C8.7339 2.69616 10.3311 2 12 2C13.6689 2 15.2661 2.69616 16.4412 3.92977C17.6157 5.16281 18.2727 6.83169 18.2727 8.56842C18.2727 11.7874 18.9287 13.7955 19.5396 14.9713C19.8461 15.5612 20.1454 15.9498 20.3551 16.1822C20.4602 16.2986 20.5434 16.3765 20.5945 16.4212C20.62 16.4436 20.6376 16.4577 20.6459 16.4642C20.648 16.4657 20.6494 16.4669 20.6503 16.4676C20.9413 16.6768 21.0684 17.0557 20.9637 17.4056C20.8581 17.7589 20.5409 18 20.1818 18H3.81824C3.45908 18 3.14192 17.7589 3.03626 17.4056C2.93163 17.0557 3.05869 16.6768 3.34965 16.4676C3.35056 16.4669 3.35204 16.4657 3.35408 16.4642C3.36239 16.4577 3.37997 16.4436 3.40553 16.4212C3.45664 16.3765 3.53981 16.2986 3.64488 16.1822C3.85461 15.9498 4.1539 15.5612 4.46037 14.9713C5.07127 13.7955 5.72732 11.7874 5.72732 8.56842C5.72732 6.83169 6.38433 5.16281 7.55884 3.92977ZM5.59242 16.3158H18.4076C18.3046 16.1483 18.2004 15.9652 18.0966 15.7655C17.3439 14.3168 16.6363 12.0301 16.6363 8.56842C16.6363 7.26773 16.144 6.02358 15.2727 5.10884C14.4019 4.19466 13.2243 3.68421 12 3.68421C10.7757 3.68421 9.5981 4.19466 8.72732 5.10884C7.85599 6.02358 7.36367 7.26773 7.36367 8.56842C7.36367 12.0301 6.65608 14.3168 5.90336 15.7655C5.79964 15.9652 5.69538 16.1483 5.59242 16.3158Z" fill="white" stroke="white" stroke-width="0.25" stroke-linecap="round" stroke-linejoin="round"/>
<path fill-rule="evenodd" clip-rule="evenodd" d="M7.42804 18.1012C7.83012 17.8863 8.33759 18.0249 8.5615 18.4109C8.91547 19.0211 9.42115 19.5236 10.0246 19.8712C10.6278 20.2186 11.3088 20.4001 12 20.4001C12.6912 20.4001 13.3722 20.2186 13.9754 19.8712C14.5788 19.5236 15.0845 19.0211 15.4385 18.4109C15.6624 18.0249 16.1699 17.8863 16.572 18.1012C16.974 18.3162 17.1185 18.8033 16.8946 19.1893C16.4017 20.039 15.6919 20.7483 14.8329 21.2431C13.9736 21.7381 12.9966 22 12 22C11.0034 22 10.0264 21.7381 9.16713 21.2431C8.30812 20.7483 7.5983 20.039 7.10542 19.1893C6.88152 18.8033 7.02596 18.3162 7.42804 18.1012Z" fill="white"/>
</svg>
