<svg width="24" height="24" viewBox="0 0 24 24" fill="none" xmlns="http://www.w3.org/2000/svg">
<path d="M16.1898 5.02105C16.445 5.15829 16.7471 5.19436 17.0303 5.12139C17.3134 5.04843 17.5546 4.87235 17.7012 4.63158C17.8226 4.4288 18.0115 4.26989 18.2384 4.17977C18.4654 4.08965 18.7175 4.07342 18.9552 4.13363C19.1929 4.19383 19.4028 4.32706 19.552 4.51243C19.7012 4.6978 19.7812 4.92482 19.7795 5.15789C19.7795 5.43707 19.6624 5.70481 19.454 5.90222C19.2455 6.09962 18.9629 6.21053 18.6681 6.21053C18.3734 6.21053 18.0907 6.32143 17.8823 6.51883C17.6739 6.71624 17.5568 6.98398 17.5568 7.26316C17.5568 7.54233 17.6739 7.81007 17.8823 8.00748C18.0907 8.20489 18.3734 8.31579 18.6681 8.31579C19.2533 8.31543 19.828 8.16922 20.3346 7.89183C20.8412 7.61444 21.2618 7.21565 21.5541 6.73553C21.8465 6.25541 22.0002 5.71087 22 5.15663C21.9998 4.60239 21.8455 4.05797 21.5528 3.57807C21.2601 3.09817 20.8391 2.6997 20.3323 2.4227C19.8255 2.14569 19.2506 1.99991 18.6654 2C18.0803 2.00009 17.5055 2.14605 16.9987 2.4232C16.492 2.70036 16.0712 3.09896 15.7786 3.57895C15.7051 3.69909 15.6575 3.83181 15.6384 3.96947C15.6193 4.10713 15.6291 4.24701 15.6674 4.38106C15.7056 4.5151 15.7714 4.64065 15.8611 4.75049C15.9508 4.86033 16.0625 4.95228 16.1898 5.02105ZM20.9686 12.5263C20.6769 12.4905 20.382 12.5656 20.1487 12.7353C19.9154 12.905 19.7626 13.1554 19.7239 13.4316C19.4907 15.216 18.5767 16.858 17.154 18.0484C15.7314 19.2388 13.8983 19.8955 12.0001 19.8947H5.78766L6.51003 19.2105C6.71702 19.0133 6.8332 18.7465 6.8332 18.4684C6.8332 18.1903 6.71702 17.9235 6.51003 17.7263C5.42642 16.6959 4.68897 15.3848 4.39058 13.9582C4.0922 12.5315 4.24622 11.0532 4.83324 9.70929C5.42026 8.36541 6.41403 7.21613 7.68938 6.4062C8.96472 5.59627 10.4646 5.16193 12.0001 5.15789C12.2948 5.15789 12.5775 5.04699 12.7859 4.84959C12.9943 4.65218 13.1114 4.38444 13.1114 4.10526C13.1114 3.82609 12.9943 3.55835 12.7859 3.36094C12.5775 3.16353 12.2948 3.05263 12.0001 3.05263C10.121 3.06006 8.28223 3.56867 6.69429 4.5202C5.10635 5.47174 3.83351 6.82771 3.0216 8.43276C2.20969 10.0378 1.89154 11.827 2.10361 13.5954C2.31568 15.3638 3.04938 17.0399 4.22067 18.4316L2.32027 20.2C2.16607 20.348 2.0616 20.536 2.02007 20.7402C1.97853 20.9444 2.00179 21.1557 2.08689 21.3474C2.17026 21.5396 2.31185 21.7042 2.4938 21.8203C2.67575 21.9364 2.88992 21.999 3.10933 22H12.0001C14.4355 22.0003 16.7874 21.159 18.6146 19.6338C20.4417 18.1086 21.6186 16.0043 21.9243 13.7158C21.9447 13.5782 21.936 13.4381 21.8989 13.3036C21.8618 13.1692 21.7969 13.0431 21.7081 12.9325C21.6192 12.8219 21.5081 12.7291 21.3812 12.6594C21.2543 12.5896 21.1141 12.5444 20.9686 12.5263ZM19.0904 9.4421C18.8881 9.35732 18.6637 9.33166 18.4458 9.36842L18.2458 9.43158L18.0458 9.52632L17.8791 9.66316C17.7791 9.76016 17.6998 9.87453 17.6457 10C17.58 10.1313 17.5494 10.2759 17.5568 10.4211C17.5535 10.5614 17.58 10.701 17.6346 10.8316C17.692 10.9579 17.7751 11.0724 17.8791 11.1684C17.9829 11.266 18.1061 11.3432 18.2415 11.3955C18.3769 11.4479 18.5219 11.4745 18.6681 11.4737C18.9629 11.4737 19.2455 11.3628 19.454 11.1654C19.6624 10.968 19.7795 10.7002 19.7795 10.4211C19.7832 10.283 19.7528 10.146 19.6905 10.0211C19.5711 9.76811 19.3575 9.56574 19.0904 9.45263V9.4421Z" fill="white"/>
</svg>
