<svg width="32" height="32" viewBox="0 0 32 32" fill="none" xmlns="http://www.w3.org/2000/svg">
<path fill-rule="evenodd" clip-rule="evenodd" d="M2.50507 5.17157C3.25521 4.42143 4.27263 4 5.3335 4H14.6668C15.4032 4 16.0002 4.59695 16.0002 5.33333C16.0002 6.06971 15.4032 6.66667 14.6668 6.66667H5.3335C4.97987 6.66667 4.64074 6.80714 4.39069 7.05719C4.14064 7.30724 4.00016 7.64638 4.00016 8V26.6667C4.00016 27.0203 4.14064 27.3594 4.39069 27.6095C4.64074 27.8595 4.97987 28 5.3335 28H24.0002C24.3538 28 24.6929 27.8595 24.943 27.6095C25.193 27.3594 25.3335 27.0203 25.3335 26.6667V17.3333C25.3335 16.597 25.9304 16 26.6668 16C27.4032 16 28.0002 16.597 28.0002 17.3333V26.6667C28.0002 27.7275 27.5787 28.7449 26.8286 29.4951C26.0784 30.2452 25.061 30.6667 24.0002 30.6667H5.3335C4.27263 30.6667 3.25521 30.2452 2.50507 29.4951C1.75492 28.7449 1.3335 27.7275 1.3335 26.6667V8C1.3335 6.93913 1.75492 5.92172 2.50507 5.17157Z" fill="#FF7506"/>
<path fill-rule="evenodd" clip-rule="evenodd" d="M26.6669 3.83805C26.2703 3.83805 25.8901 3.99557 25.6097 4.27596L13.2041 16.6815L12.4993 19.5007L15.3185 18.7959L27.724 6.39034C28.0044 6.10995 28.162 5.72967 28.162 5.33315C28.162 4.93662 28.0044 4.55634 27.724 4.27596C27.4437 3.99557 27.0634 3.83805 26.6669 3.83805ZM23.724 2.39034C24.5045 1.60986 25.5631 1.17139 26.6669 1.17139C27.7706 1.17139 28.8292 1.60986 29.6097 2.39034C30.3901 3.17082 30.8286 4.22938 30.8286 5.33315C30.8286 6.43691 30.3901 7.49547 29.6097 8.27596L16.943 20.9426C16.7721 21.1135 16.558 21.2347 16.3236 21.2933L10.9902 22.6267C10.5359 22.7403 10.0552 22.6071 9.72405 22.276C9.39287 21.9448 9.25974 21.4641 9.37333 21.0098L10.7067 15.6764C10.7653 15.442 10.8865 15.2279 11.0574 15.057L23.724 2.39034Z" fill="#FF7506"/>
</svg>
