<svg width="24" height="24" viewBox="0 0 24 24" fill="none" xmlns="http://www.w3.org/2000/svg">
<path fill-rule="evenodd" clip-rule="evenodd" d="M3.23621 12C3.33336 12.1679 3.46215 12.3818 3.6217 12.6289C4.03149 13.2634 4.63836 14.1072 5.42625 14.9476C7.01823 16.6457 9.244 18.2222 12 18.2222C14.756 18.2222 16.9817 16.6457 18.5737 14.9476C19.3616 14.1072 19.9685 13.2634 20.3783 12.6289C20.5378 12.3818 20.6666 12.1679 20.7638 12C20.6666 11.8321 20.5378 11.6182 20.3783 11.3711C19.9685 10.7366 19.3616 9.8928 18.5737 9.05239C16.9817 7.35427 14.756 5.77778 12 5.77778C9.244 5.77778 7.01823 7.35427 5.42625 9.05239C4.63836 9.8928 4.03149 10.7366 3.6217 11.3711C3.46215 11.6182 3.33336 11.8321 3.23621 12ZM21.7778 12C22.5728 11.6025 22.5727 11.6022 22.5725 11.6018L22.5711 11.599L22.568 11.5929L22.5579 11.5732C22.5494 11.5567 22.5374 11.5336 22.522 11.5044C22.4911 11.446 22.4462 11.3629 22.3876 11.2587C22.2704 11.0503 22.0979 10.7569 21.8717 10.4066C21.4204 9.70783 20.7495 8.77386 19.8707 7.8365C18.1293 5.97906 15.4662 4 12 4C8.53376 4 5.87064 5.97906 4.12929 7.8365C3.25051 8.77386 2.57961 9.70783 2.12829 10.4066C1.90208 10.7569 1.72959 11.0503 1.61241 11.2587C1.55379 11.3629 1.50892 11.446 1.478 11.5044C1.46253 11.5336 1.45055 11.5567 1.44207 11.5732L1.43199 11.5929L1.42892 11.599L1.42788 11.6011C1.42772 11.6014 1.42717 11.6025 2.22222 12L1.42717 11.6025C1.30205 11.8527 1.30205 12.1473 1.42717 12.3975L2.22222 12C1.42717 12.3975 1.42701 12.3972 1.42717 12.3975L1.42892 12.401L1.43199 12.4071L1.44207 12.4268C1.45055 12.4433 1.46253 12.4664 1.478 12.4956C1.50892 12.554 1.55379 12.6371 1.61241 12.7413C1.72959 12.9496 1.90208 13.2431 2.12829 13.5934C2.57961 14.2922 3.25051 15.2261 4.12929 16.1635C5.87064 18.0209 8.53376 20 12 20C15.4662 20 18.1293 18.0209 19.8707 16.1635C20.7495 15.2261 21.4204 14.2922 21.8717 13.5934C22.0979 13.2431 22.2704 12.9496 22.3876 12.7413C22.4462 12.6371 22.4911 12.554 22.522 12.4956C22.5374 12.4664 22.5494 12.4433 22.5579 12.4268L22.568 12.4071L22.5711 12.401L22.5721 12.3989C22.5723 12.3986 22.5728 12.3975 21.7778 12ZM21.7778 12L22.5728 12.3975C22.6979 12.1473 22.6976 11.8521 22.5725 11.6018L21.7778 12Z" fill="#FF7506"/>
<path fill-rule="evenodd" clip-rule="evenodd" d="M12 9.8667C10.8218 9.8667 9.86671 10.8218 9.86671 12C9.86671 13.1782 10.8218 14.1333 12 14.1333C13.1782 14.1333 14.1333 13.1782 14.1333 12C14.1333 10.8218 13.1782 9.8667 12 9.8667ZM7.73341 12C7.73341 9.64362 9.64363 7.7334 12 7.7334C14.3564 7.7334 16.2666 9.64362 16.2666 12C16.2666 14.3564 14.3564 16.2666 12 16.2666C9.64363 16.2666 7.73341 14.3564 7.73341 12Z" fill="#FF7506"/>
</svg>
