<svg width="32" height="32" viewBox="0 0 32 32" fill="none" xmlns="http://www.w3.org/2000/svg">
<path fill-rule="evenodd" clip-rule="evenodd" d="M15.9998 5.33317C9.97491 5.33317 5.33317 9.97491 5.33317 15.9998C5.33317 22.0248 9.97491 26.6665 15.9998 26.6665C22.0248 26.6665 26.6665 22.0248 26.6665 15.9998C26.6665 9.97491 22.0248 5.33317 15.9998 5.33317ZM2.6665 15.9998C2.6665 8.63604 8.63604 2.6665 15.9998 2.6665C23.3636 2.6665 29.3332 8.63604 29.3332 15.9998C29.3332 23.3636 23.3636 29.3332 15.9998 29.3332C8.63604 29.3332 2.6665 23.3636 2.6665 15.9998ZM15.9998 12.6665C16.7362 12.6665 17.3332 13.2635 17.3332 13.9998V22.6665C17.3332 23.4029 16.7362 23.9998 15.9998 23.9998C15.2635 23.9998 14.6665 23.4029 14.6665 22.6665V13.9998C14.6665 13.2635 15.2635 12.6665 15.9998 12.6665ZM15.9998 7.99984C15.2635 7.99984 14.6665 8.59679 14.6665 9.33317C14.6665 10.0696 15.2635 10.6665 15.9998 10.6665H16.0132C16.7495 10.6665 17.3465 10.0696 17.3465 9.33317C17.3465 8.59679 16.7495 7.99984 16.0132 7.99984H15.9998Z" fill="#FF7506"/>
</svg>
