<svg width="24" height="24" viewBox="0 0 24 24" fill="none" xmlns="http://www.w3.org/2000/svg">
<path d="M20.7043 16.71L18.2851 14.29C18.1921 14.1963 18.0816 14.1219 17.9598 14.0711C17.8379 14.0203 17.7073 13.9942 17.5753 13.9942C17.4433 13.9942 17.3127 14.0203 17.1909 14.0711C17.069 14.1219 16.9585 14.1963 16.8655 14.29L13.2867 17.87C13.194 17.9634 13.1207 18.0742 13.071 18.1961C13.0212 18.3179 12.996 18.4484 12.9968 18.58V21C12.9968 21.2652 13.1021 21.5196 13.2896 21.7071C13.4771 21.8946 13.7313 22 13.9965 22H16.4157C16.5472 22.0007 16.6777 21.9755 16.7995 21.9258C16.9213 21.876 17.032 21.8027 17.1254 21.71L20.7043 18.13C20.798 18.037 20.8724 17.9264 20.9231 17.8046C20.9739 17.6827 21 17.552 21 17.42C21 17.288 20.9739 17.1573 20.9231 17.0354C20.8724 16.9136 20.798 16.8029 20.7043 16.71ZM15.9958 20H14.9961V19L17.5753 16.42L18.575 17.42L15.9958 20ZM9.99775 20H5.99903C5.7339 20 5.47963 19.8946 5.29216 19.7071C5.10468 19.5196 4.99936 19.2652 4.99936 19V5C4.99936 4.73478 5.10468 4.48043 5.29216 4.29289C5.47963 4.10536 5.7339 4 5.99903 4H10.9974V7C10.9974 7.79564 11.3134 8.55871 11.8758 9.12132C12.4382 9.68392 13.2011 9.99999 13.9965 9.99999H16.9955V11C16.9955 11.2652 17.1008 11.5196 17.2883 11.7071C17.4758 11.8946 17.73 12 17.9952 12C18.2603 12 18.5146 11.8946 18.702 11.7071C18.8895 11.5196 18.9948 11.2652 18.9948 11V8.99999C18.9948 8.99999 18.9948 8.99999 18.9948 8.93999C18.9844 8.84813 18.9643 8.75763 18.9349 8.66999V8.57999C18.8868 8.47717 18.8227 8.38266 18.7449 8.29999L12.7469 2.3C12.6642 2.22222 12.5697 2.15808 12.467 2.11C12.4371 2.10576 12.4068 2.10576 12.377 2.11L12.0571 2H5.99903C5.20364 2 4.44082 2.31607 3.8784 2.87868C3.31597 3.44129 3 4.20435 3 5V19C3 19.7956 3.31597 20.5587 3.8784 21.1213C4.44082 21.6839 5.20364 22 5.99903 22H9.99775C10.2629 22 10.5171 21.8946 10.7046 21.7071C10.8921 21.5196 10.9974 21.2652 10.9974 21C10.9974 20.7348 10.8921 20.4804 10.7046 20.2929C10.5171 20.1053 10.2629 20 9.99775 20ZM12.9968 5.41L15.5859 8H13.9965C13.7313 8 13.4771 7.89464 13.2896 7.7071C13.1021 7.51957 12.9968 7.26521 12.9968 7V5.41ZM7.99839 14H13.9965C14.2616 14 14.5159 13.8946 14.7033 13.7071C14.8908 13.5196 14.9961 13.2652 14.9961 13C14.9961 12.7348 14.8908 12.4804 14.7033 12.2929C14.5159 12.1053 14.2616 12 13.9965 12H7.99839C7.73326 12 7.47899 12.1053 7.29151 12.2929C7.10403 12.4804 6.99871 12.7348 6.99871 13C6.99871 13.2652 7.10403 13.5196 7.29151 13.7071C7.47899 13.8946 7.73326 14 7.99839 14ZM7.99839 9.99999H8.99807C9.2632 9.99999 9.51747 9.89464 9.70495 9.7071C9.89242 9.51956 9.99775 9.26521 9.99775 8.99999C9.99775 8.73478 9.89242 8.48042 9.70495 8.29289C9.51747 8.10535 9.2632 7.99999 8.99807 8H7.99839C7.73326 7.99999 7.47899 8.10535 7.29151 8.29289C7.10403 8.48042 6.99871 8.73478 6.99871 8.99999C6.99871 9.26521 7.10403 9.51956 7.29151 9.7071C7.47899 9.89464 7.73326 9.99999 7.99839 9.99999ZM9.99775 16H7.99839C7.73326 16 7.47899 16.1053 7.29151 16.2929C7.10403 16.4804 6.99871 16.7348 6.99871 17C6.99871 17.2652 7.10403 17.5196 7.29151 17.7071C7.47899 17.8946 7.73326 18 7.99839 18H9.99775C10.2629 18 10.5171 17.8946 10.7046 17.7071C10.8921 17.5196 10.9974 17.2652 10.9974 17C10.9974 16.7348 10.8921 16.4804 10.7046 16.2929C10.5171 16.1053 10.2629 16 9.99775 16Z" fill="white"/>
</svg>
