<svg width="32" height="28" viewBox="0 0 32 28" fill="none" xmlns="http://www.w3.org/2000/svg">
<path d="M30.4 11.6464H28.8V10.0778C28.8 9.66175 28.6314 9.26277 28.3314 8.96859C28.0313 8.67442 27.6243 8.50915 27.2 8.50915C26.7757 8.50915 26.3687 8.67442 26.0686 8.96859C25.7686 9.26277 25.6 9.66175 25.6 10.0778V11.6464H24C23.5757 11.6464 23.1687 11.8117 22.8686 12.1058C22.5686 12.4 22.4 12.799 22.4 13.215C22.4 13.6311 22.5686 14.03 22.8686 14.3242C23.1687 14.6184 23.5757 14.7837 24 14.7837H25.6V16.3523C25.6 16.7683 25.7686 17.1673 26.0686 17.4615C26.3687 17.7557 26.7757 17.9209 27.2 17.9209C27.6243 17.9209 28.0313 17.7557 28.3314 17.4615C28.6314 17.1673 28.8 16.7683 28.8 16.3523V14.7837H30.4C30.8243 14.7837 31.2313 14.6184 31.5314 14.3242C31.8314 14.03 32 13.6311 32 13.215C32 12.799 31.8314 12.4 31.5314 12.1058C31.2313 11.8117 30.8243 11.6464 30.4 11.6464ZM18.08 14.3444C18.9337 13.62 19.6185 12.7239 20.0878 11.717C20.5571 10.7102 20.8 9.61615 20.8 8.50915C20.8 6.42902 19.9571 4.43409 18.4569 2.96322C16.9566 1.49234 14.9217 0.666016 12.8 0.666016C10.6783 0.666016 8.64344 1.49234 7.14315 2.96322C5.64285 4.43409 4.8 6.42902 4.8 8.50915C4.79999 9.61615 5.04288 10.7102 5.5122 11.717C5.98152 12.7239 6.66628 13.62 7.52 14.3444C5.28022 15.3388 3.37994 16.9445 2.04637 18.9696C0.712792 20.9947 0.00235497 23.3536 0 25.7641C0 26.1801 0.168571 26.5791 0.468629 26.8732C0.768687 27.1674 1.17565 27.3327 1.6 27.3327C2.02435 27.3327 2.43131 27.1674 2.73137 26.8732C3.03143 26.5791 3.2 26.1801 3.2 25.7641C3.2 23.2679 4.21143 20.874 6.01178 19.1089C7.81212 17.3439 10.2539 16.3523 12.8 16.3523C15.3461 16.3523 17.7879 17.3439 19.5882 19.1089C21.3886 20.874 22.4 23.2679 22.4 25.7641C22.4 26.1801 22.5686 26.5791 22.8686 26.8732C23.1687 27.1674 23.5757 27.3327 24 27.3327C24.4243 27.3327 24.8313 27.1674 25.1314 26.8732C25.4314 26.5791 25.6 26.1801 25.6 25.7641C25.5976 23.3536 24.8872 20.9947 23.5536 18.9696C22.2201 16.9445 20.3198 15.3388 18.08 14.3444ZM12.8 13.215C11.8506 13.215 10.9226 12.939 10.1333 12.422C9.34391 11.9049 8.72868 11.1699 8.36538 10.31C8.00208 9.45013 7.90702 8.50393 8.09223 7.59108C8.27744 6.67823 8.7346 5.83972 9.40589 5.18159C10.0772 4.52346 10.9325 4.07527 11.8636 3.89369C12.7947 3.71212 13.7598 3.80531 14.6369 4.16148C15.514 4.51766 16.2636 5.12083 16.7911 5.8947C17.3185 6.66858 17.6 7.57842 17.6 8.50915C17.6 9.75723 17.0943 10.9542 16.1941 11.8367C15.2939 12.7192 14.073 13.215 12.8 13.215Z" fill="white"/>
</svg>
