<svg width="28" height="28" viewBox="0 0 28 28" fill="none" xmlns="http://www.w3.org/2000/svg">
<path d="M25.1198 10.4262L6.45318 1.09285C5.7165 0.726199 4.88466 0.595667 4.07109 0.719056C3.25751 0.842444 2.50179 1.21375 1.90695 1.78234C1.31211 2.35094 0.907112 3.08915 0.747165 3.89633C0.587219 4.70352 0.68011 5.54039 1.01317 6.29285L4.21317 13.4529C4.28578 13.626 4.32318 13.8118 4.32318 13.9995C4.32318 14.1872 4.28578 14.3731 4.21317 14.5462L1.01317 21.7062C0.742108 22.3151 0.627516 22.9822 0.679811 23.6467C0.732106 24.3112 0.949631 24.9521 1.31262 25.5111C1.6756 26.0702 2.17254 26.5297 2.75827 26.8478C3.344 27.166 3.99995 27.3327 4.66651 27.3329C5.29082 27.3266 5.90583 27.1808 6.46651 26.9062L25.1332 17.5729C25.7953 17.2398 26.3519 16.7293 26.7408 16.0983C27.1297 15.4673 27.3356 14.7407 27.3356 13.9995C27.3356 13.2583 27.1297 12.5317 26.7408 11.9007C26.3519 11.2698 25.7953 10.7593 25.1332 10.4262H25.1198ZM23.9332 15.1862L5.26651 24.5195C5.02139 24.6372 4.74615 24.6772 4.47769 24.634C4.20923 24.5908 3.96039 24.4666 3.76452 24.278C3.56866 24.0894 3.43515 23.8454 3.38188 23.5788C3.32862 23.3121 3.35814 23.0356 3.46651 22.7862L6.65317 15.6262C6.69443 15.5306 6.73004 15.4326 6.75984 15.3329H15.9465C16.3001 15.3329 16.6393 15.1924 16.8893 14.9423C17.1394 14.6923 17.2798 14.3531 17.2798 13.9995C17.2798 13.6459 17.1394 13.3068 16.8893 13.0567C16.6393 12.8067 16.3001 12.6662 15.9465 12.6662H6.75984C6.73004 12.5664 6.69443 12.4685 6.65317 12.3729L3.46651 5.21285C3.35814 4.96347 3.32862 4.68692 3.38188 4.42028C3.43515 4.15364 3.56866 3.90966 3.76452 3.72105C3.96039 3.53244 4.20923 3.40823 4.47769 3.36506C4.74615 3.32189 5.02139 3.36183 5.26651 3.47952L23.9332 12.8129C24.1516 12.9247 24.3349 13.0947 24.4629 13.3041C24.5908 13.5135 24.6586 13.7541 24.6586 13.9995C24.6586 14.2449 24.5908 14.4856 24.4629 14.6949C24.3349 14.9043 24.1516 15.0743 23.9332 15.1862Z" fill="#FF7506"/>
</svg>
