<svg width="24" height="14" viewBox="0 0 24 14" fill="none" xmlns="http://www.w3.org/2000/svg">
<path d="M23.0121 0.95468C22.5974 0.557128 22.0364 0.333984 21.4516 0.333984C20.8668 0.333984 20.3058 0.557128 19.8911 0.95468L11.9448 8.5108L4.1092 0.95468C3.69448 0.557128 3.13348 0.333984 2.54872 0.333984C1.96395 0.333984 1.40295 0.557128 0.988232 0.95468C0.780768 1.15311 0.6161 1.38919 0.503725 1.6493C0.391351 1.9094 0.333496 2.18839 0.333496 2.47017C0.333496 2.75195 0.391351 3.03094 0.503725 3.29105C0.6161 3.55116 0.780768 3.78724 0.988232 3.98567L10.3733 13.0359C10.579 13.236 10.8239 13.3948 11.0936 13.5032C11.3633 13.6115 11.6526 13.6673 11.9448 13.6673C12.237 13.6673 12.5263 13.6115 12.7961 13.5032C13.0658 13.3948 13.3106 13.236 13.5164 13.0359L23.0121 3.98567C23.2196 3.78724 23.3842 3.55116 23.4966 3.29105C23.609 3.03094 23.6668 2.75195 23.6668 2.47017C23.6668 2.18839 23.609 1.9094 23.4966 1.6493C23.3842 1.38919 23.2196 1.15311 23.0121 0.95468Z" fill="#FF7506"/>
</svg>
