<svg width="14" height="27" viewBox="0 0 14 27" fill="none" xmlns="http://www.w3.org/2000/svg">
<path fill-rule="evenodd" clip-rule="evenodd" d="M2.28612 1.95262C3.53636 0.702379 5.23205 0 7.00016 0C8.76827 0 10.464 0.702379 11.7142 1.95262C12.9645 3.20286 13.6668 4.89856 13.6668 6.66667V20C13.6668 21.7681 12.9645 23.4638 11.7142 24.714C10.464 25.9643 8.76827 26.6667 7.00016 26.6667C5.23205 26.6667 3.53636 25.9643 2.28612 24.714C1.03587 23.4638 0.333496 21.7681 0.333496 20V6.66667C0.333496 4.89856 1.03587 3.20286 2.28612 1.95262ZM7.00016 3.33333C6.11611 3.33333 5.26826 3.68452 4.64314 4.30964C4.01802 4.93476 3.66683 5.78261 3.66683 6.66667V20C3.66683 20.8841 4.01802 21.7319 4.64314 22.357C5.26826 22.9821 6.11611 23.3333 7.00016 23.3333C7.88422 23.3333 8.73207 22.9821 9.35719 22.357C9.98231 21.7319 10.3335 20.8841 10.3335 20V6.66667C10.3335 5.78261 9.98231 4.93476 9.35719 4.30964C8.73207 3.68452 7.88422 3.33333 7.00016 3.33333Z" fill="white"/>
</svg>
