<svg width="28" height="22" viewBox="0 0 28 22" fill="none" xmlns="http://www.w3.org/2000/svg">
<path d="M14.5732 0.467035C14.3566 0.373358 14.1191 0.338811 13.8849 0.36692C13.6506 0.395029 13.4281 0.484788 13.2398 0.627035L6.8665 5.66703H1.99984C1.64622 5.66703 1.30708 5.80751 1.05703 6.05756C0.80698 6.30761 0.666504 6.64675 0.666504 7.00037V15.0004C0.666504 15.354 0.80698 15.6931 1.05703 15.9432C1.30708 16.1932 1.64622 16.3337 1.99984 16.3337H6.8665L13.1732 21.3737C13.4078 21.5619 13.6991 21.6653 13.9998 21.667C14.199 21.6703 14.3959 21.6245 14.5732 21.5337C14.8001 21.4256 14.9918 21.2556 15.1263 21.0433C15.2607 20.831 15.3325 20.585 15.3332 20.3337V1.66703C15.3325 1.41572 15.2607 1.16972 15.1263 0.957406C14.9918 0.74509 14.8001 0.5751 14.5732 0.467035ZM12.6665 17.5604L8.15984 13.9604C7.92525 13.7722 7.63392 13.6688 7.33317 13.667H3.33317V8.3337H7.33317C7.63392 8.33196 7.92525 8.22858 8.15984 8.04037L12.6665 4.44037V17.5604ZM24.2132 3.4537C23.9621 3.20263 23.6216 3.06158 23.2665 3.06158C22.9114 3.06158 22.5709 3.20263 22.3198 3.4537C22.0688 3.70477 21.9277 4.0453 21.9277 4.40037C21.9277 4.75544 22.0688 5.09596 22.3198 5.34703C23.105 6.13095 23.7185 7.06961 24.1213 8.10337C24.5242 9.13713 24.7076 10.2434 24.66 11.3519C24.6123 12.4603 24.3347 13.5468 23.8446 14.5421C23.3545 15.5375 22.6627 16.4201 21.8132 17.1337C21.6069 17.3101 21.4593 17.5453 21.3902 17.8078C21.3211 18.0703 21.3338 18.3477 21.4266 18.6028C21.5194 18.8579 21.6878 19.0786 21.9094 19.2354C22.1309 19.3922 22.3951 19.4777 22.6665 19.4804C22.978 19.481 23.28 19.3725 23.5198 19.1737C24.6544 18.2234 25.5788 17.0474 26.2343 15.7205C26.8898 14.3936 27.262 12.9449 27.3272 11.4663C27.3924 9.9878 27.1492 8.51188 26.6131 7.13243C26.077 5.75297 25.2597 4.50017 24.2132 3.4537ZM20.4398 7.22703C20.3155 7.10272 20.1679 7.0041 20.0055 6.93682C19.8431 6.86954 19.669 6.83491 19.4932 6.83491C19.3174 6.83491 19.1433 6.86954 18.9808 6.93682C18.8184 7.0041 18.6708 7.10272 18.5465 7.22703C18.4222 7.35135 18.3236 7.49894 18.2563 7.66137C18.189 7.8238 18.1544 7.99789 18.1544 8.1737C18.1544 8.34951 18.189 8.5236 18.2563 8.68603C18.3236 8.84846 18.4222 8.99605 18.5465 9.12037C19.0473 9.61817 19.3302 10.2943 19.3332 11.0004C19.3335 11.3888 19.2489 11.7727 19.0854 12.125C18.9219 12.4774 18.6834 12.7898 18.3865 13.0404C18.2515 13.1523 18.1399 13.2898 18.0581 13.4449C17.9763 13.6 17.9259 13.7698 17.9098 13.9444C17.8937 14.119 17.9122 14.2951 17.9643 14.4626C18.0163 14.6301 18.1009 14.7856 18.2132 14.9204C18.326 15.0544 18.4642 15.1649 18.6198 15.2455C18.7754 15.3261 18.9454 15.3752 19.12 15.3901C19.2946 15.4049 19.4704 15.3852 19.6374 15.3321C19.8044 15.2789 19.9593 15.1934 20.0932 15.0804C20.6893 14.5805 21.1689 13.9563 21.4983 13.2515C21.8276 12.5467 21.9988 11.7783 21.9998 11.0004C21.9923 9.58718 21.4324 8.23297 20.4398 7.22703Z" fill="white"/>
</svg>
