<svg width="28" height="28" viewBox="0 0 28 28" fill="none" xmlns="http://www.w3.org/2000/svg">
<path d="M23.9201 15.3325C23.6268 15.3325 23.3201 15.2392 23.0268 15.1725C22.4328 15.0416 21.849 14.8678 21.2801 14.6525C20.6616 14.4275 19.9817 14.4392 19.3712 14.6853C18.7608 14.9315 18.2629 15.3947 17.9735 15.9858L17.6801 16.5858C16.3815 15.8634 15.1881 14.9661 14.1335 13.9192C13.0865 12.8645 12.1892 11.6712 11.4668 10.3725L12.0268 9.99917C12.618 9.70973 13.0812 9.21188 13.3273 8.60143C13.5735 7.99098 13.5852 7.31106 13.3601 6.69251C13.1484 6.1224 12.9747 5.5389 12.8401 4.94584C12.7735 4.65251 12.7201 4.34584 12.6801 4.03917C12.5182 3.1 12.0263 2.2495 11.293 1.64083C10.5596 1.03216 9.63306 0.705318 8.68013 0.719173H4.68013C4.10551 0.713778 3.53647 0.832258 3.01175 1.06655C2.48703 1.30084 2.01895 1.64543 1.63937 2.07688C1.2598 2.50833 0.977647 3.0165 0.812118 3.56679C0.64659 4.11709 0.601574 4.69658 0.680134 5.26584C1.39045 10.8517 3.94151 16.0417 7.93034 20.016C11.9192 23.9904 17.1184 26.5225 22.7068 27.2125H23.2135C24.1967 27.2139 25.146 26.8532 25.8801 26.1992C26.302 25.8219 26.6389 25.3594 26.8688 24.8423C27.0986 24.3251 27.2161 23.7651 27.2135 23.1992V19.1992C27.1971 18.273 26.8599 17.3812 26.2593 16.6761C25.6586 15.9709 24.8319 15.496 23.9201 15.3325ZM24.5868 23.3325C24.5866 23.5218 24.546 23.7089 24.4678 23.8813C24.3897 24.0538 24.2757 24.2076 24.1335 24.3325C23.9845 24.4611 23.8103 24.5572 23.622 24.6146C23.4337 24.672 23.2355 24.6895 23.0401 24.6658C18.0467 24.0256 13.4084 21.7412 9.85709 18.1729C6.30573 14.6046 4.04335 9.95562 3.4268 4.95917C3.40558 4.76386 3.42418 4.56628 3.48147 4.37836C3.53876 4.19044 3.63356 4.01609 3.76013 3.86584C3.88508 3.72362 4.03888 3.60963 4.21131 3.53146C4.38373 3.4533 4.57082 3.41275 4.76013 3.41251H8.76013C9.0702 3.40561 9.37296 3.50701 9.61633 3.69927C9.85969 3.89152 10.0284 4.1626 10.0935 4.46584C10.1468 4.83028 10.2135 5.19028 10.2935 5.54584C10.4475 6.2487 10.6525 6.93941 10.9068 7.61251L9.04013 8.47917C8.88053 8.5524 8.73696 8.65644 8.61768 8.7853C8.49839 8.91417 8.40574 9.06533 8.34503 9.2301C8.28432 9.39487 8.25676 9.57001 8.26393 9.74547C8.2711 9.92092 8.31285 10.0932 8.3868 10.2525C10.3057 14.3628 13.6098 17.6669 17.7201 19.5858C18.0447 19.7192 18.4089 19.7192 18.7335 19.5858C18.8997 19.5264 19.0526 19.4344 19.183 19.3154C19.3135 19.1964 19.419 19.0526 19.4935 18.8925L20.3201 17.0258C21.0094 17.2723 21.7129 17.4772 22.4268 17.6392C22.7824 17.7192 23.1424 17.7858 23.5068 17.8392C23.81 17.9042 24.0811 18.073 24.2734 18.3163C24.4656 18.5597 24.567 18.8624 24.5601 19.1725L24.5868 23.3325Z" fill="#823B00"/>
</svg>
