<svg width="32" height="28" viewBox="0 0 32 28" fill="none" xmlns="http://www.w3.org/2000/svg">
<path d="M27.2 0.667969H4.8C3.52696 0.667969 2.30606 1.19475 1.40589 2.13244C0.505713 3.07012 0 4.34189 0 5.66797V22.3346C0 23.6607 0.505713 24.9325 1.40589 25.8702C2.30606 26.8079 3.52696 27.3346 4.8 27.3346H27.2C28.473 27.3346 29.6939 26.8079 30.5941 25.8702C31.4943 24.9325 32 23.6607 32 22.3346V5.66797C32 4.34189 31.4943 3.07012 30.5941 2.13244C29.6939 1.19475 28.473 0.667969 27.2 0.667969ZM4.8 4.0013H27.2C27.6243 4.0013 28.0313 4.1769 28.3314 4.48946C28.6314 4.80202 28.8 5.22594 28.8 5.66797L16 13.8013L3.2 5.66797C3.2 5.22594 3.36857 4.80202 3.66863 4.48946C3.96869 4.1769 4.37565 4.0013 4.8 4.0013ZM28.8 22.3346C28.8 22.7767 28.6314 23.2006 28.3314 23.5131C28.0313 23.8257 27.6243 24.0013 27.2 24.0013H4.8C4.37565 24.0013 3.96869 23.8257 3.66863 23.5131C3.36857 23.2006 3.2 22.7767 3.2 22.3346V9.46797L15.168 17.0846C15.4112 17.2309 15.6871 17.3079 15.968 17.3079C16.2489 17.3079 16.5248 17.2309 16.768 17.0846L28.8 9.46797V22.3346Z" fill="#823B00"/>
</svg>
