<svg width="21" height="21" viewBox="0 0 21 21" fill="none" xmlns="http://www.w3.org/2000/svg">
<path d="M13.9999 8.99942H10.9999V5.99942C10.9999 5.7342 10.8945 5.47985 10.707 5.29231C10.5195 5.10477 10.2651 4.99942 9.9999 4.99942C9.73469 4.99942 9.48033 5.10477 9.2928 5.29231C9.10526 5.47985 8.9999 5.7342 8.9999 5.99942V8.99942H5.9999C5.73469 8.99942 5.48033 9.10477 5.2928 9.29231C5.10526 9.47985 4.9999 9.7342 4.9999 9.99942C4.9999 10.2646 5.10526 10.519 5.2928 10.7065C5.48033 10.8941 5.73469 10.9994 5.9999 10.9994H8.9999V13.9994C8.9999 14.2646 9.10526 14.519 9.2928 14.7065C9.48033 14.8941 9.73469 14.9994 9.9999 14.9994C10.2651 14.9994 10.5195 14.8941 10.707 14.7065C10.8945 14.519 10.9999 14.2646 10.9999 13.9994V10.9994H13.9999C14.2651 10.9994 14.5195 10.8941 14.707 10.7065C14.8945 10.519 14.9999 10.2646 14.9999 9.99942C14.9999 9.7342 14.8945 9.47985 14.707 9.29231C14.5195 9.10477 14.2651 8.99942 13.9999 8.99942ZM20.7099 19.2894L16.9999 15.6094C18.44 13.8138 19.1374 11.5347 18.9487 9.24072C18.76 6.94672 17.6996 4.8122 15.9854 3.27606C14.2713 1.73992 12.0337 0.918926 9.73283 0.981887C7.43194 1.04485 5.24263 1.98698 3.61505 3.61456C1.98747 5.24214 1.04534 7.43145 0.982375 9.73234C0.919414 12.0332 1.74041 14.2708 3.27655 15.9849C4.81269 17.6991 6.94721 18.7595 9.2412 18.9482C11.5352 19.1369 13.8143 18.4395 15.6099 16.9994L19.2899 20.6794C19.3829 20.7731 19.4935 20.8475 19.6153 20.8983C19.7372 20.9491 19.8679 20.9752 19.9999 20.9752C20.1319 20.9752 20.2626 20.9491 20.3845 20.8983C20.5063 20.8475 20.6169 20.7731 20.7099 20.6794C20.8901 20.493 20.9909 20.2438 20.9909 19.9844C20.9909 19.7251 20.8901 19.4759 20.7099 19.2894ZM9.9999 16.9994C8.61544 16.9994 7.26206 16.5889 6.11091 15.8197C4.95977 15.0505 4.06256 13.9573 3.53275 12.6782C3.00293 11.3991 2.86431 9.99165 3.13441 8.63378C3.4045 7.27592 4.07119 6.02864 5.05016 5.04967C6.02912 4.0707 7.27641 3.40402 8.63427 3.13392C9.99214 2.86382 11.3996 3.00245 12.6787 3.53226C13.9578 4.06207 15.051 4.95928 15.8202 6.11042C16.5894 7.26157 16.9999 8.61495 16.9999 9.99942C16.9999 11.8559 16.2624 13.6364 14.9497 14.9492C13.6369 16.2619 11.8564 16.9994 9.9999 16.9994Z" fill="white"/>
</svg>
