<svg width="17" height="20" viewBox="0 0 17 20" fill="none" xmlns="http://www.w3.org/2000/svg">
<path d="M2.50019 0H14.0002C15.2256 0 16.2222 0.996667 16.2222 2.22222V5.66667C16.2222 6.21895 15.7745 6.66667 15.2222 6.66667H15.0002C14.4479 6.66667 14.0002 6.21895 14.0002 5.66667V3.22222C14.0002 2.66994 13.5525 2.22222 13.0002 2.22222H3.50019C2.94791 2.22222 2.50019 2.66994 2.50019 3.22222V16.7778C2.50019 17.3301 2.9479 17.7778 3.50019 17.7778H13.0002C13.5525 17.7778 14.0002 17.3301 14.0002 16.7778V14.3333C14.0002 13.781 14.4479 13.3333 15.0002 13.3333H15.2222C15.7745 13.3333 16.2222 13.781 16.2222 14.3333V17.7778C16.2222 19.0033 15.2256 20 14.0002 20H2.50019C1.27477 20 0.278214 19.0033 0.278214 17.7778V2.22222C0.278214 0.996667 1.27588 0 2.50019 0Z" fill="white"/>
</svg>
