<svg width="26" height="26" viewBox="0 0 26 26" fill="none" xmlns="http://www.w3.org/2000/svg">
<path d="M24.25 15.5H23V3H24.25C24.5815 3 24.8995 2.8683 25.1339 2.63388C25.3683 2.39946 25.5 2.08152 25.5 1.75C25.5 1.41848 25.3683 1.10054 25.1339 0.866116C24.8995 0.631696 24.5815 0.5 24.25 0.5H1.75C1.41848 0.5 1.10054 0.631696 0.866116 0.866116C0.631696 1.10054 0.5 1.41848 0.5 1.75C0.5 2.08152 0.631696 2.39946 0.866116 2.63388C1.10054 2.8683 1.41848 3 1.75 3H3V15.5H1.75C1.41848 15.5 1.10054 15.6317 0.866116 15.8661C0.631696 16.1005 0.5 16.4185 0.5 16.75C0.5 17.0815 0.631696 17.3995 0.866116 17.6339C1.10054 17.8683 1.41848 18 1.75 18H11.75V19.4375L6.0625 23.1875C5.82917 23.3319 5.64985 23.5491 5.55221 23.8056C5.45457 24.0621 5.44404 24.3435 5.52224 24.6066C5.60044 24.8696 5.76303 25.0996 5.98492 25.2611C6.2068 25.4225 6.47566 25.5065 6.75 25.5C6.99575 25.5028 7.2362 25.4285 7.4375 25.2875L11.75 22.4375V24.25C11.75 24.5815 11.8817 24.8995 12.1161 25.1339C12.3505 25.3683 12.6685 25.5 13 25.5C13.3315 25.5 13.6495 25.3683 13.8839 25.1339C14.1183 24.8995 14.25 24.5815 14.25 24.25V22.4375L18.5625 25.2875C18.7638 25.4285 19.0042 25.5028 19.25 25.5C19.5171 25.4979 19.7764 25.4104 19.9901 25.2502C20.2038 25.09 20.3606 24.8656 20.4375 24.6098C20.5143 24.3541 20.5073 24.0804 20.4173 23.8289C20.3273 23.5775 20.1592 23.3614 19.9375 23.2125L14.25 19.4625V18H24.25C24.5815 18 24.8995 17.8683 25.1339 17.6339C25.3683 17.3995 25.5 17.0815 25.5 16.75C25.5 16.4185 25.3683 16.1005 25.1339 15.8661C24.8995 15.6317 24.5815 15.5 24.25 15.5ZM20.5 15.5H5.5V3H20.5V15.5ZM10.0125 13.325C10.3457 13.5218 10.7255 13.6257 11.1125 13.6257C11.4995 13.6257 11.8793 13.5218 12.2125 13.325L15.9625 11.15C16.2831 10.9532 16.5479 10.6776 16.7316 10.3493C16.9152 10.021 17.0117 9.65116 17.0117 9.275C17.0117 8.89884 16.9152 8.52897 16.7316 8.20071C16.5479 7.87245 16.2831 7.59677 15.9625 7.4L12.2125 5.225C11.8793 5.02816 11.4995 4.92433 11.1125 4.92433C10.7255 4.92433 10.3457 5.02816 10.0125 5.225C9.67679 5.41425 9.39848 5.69074 9.20704 6.02521C9.0156 6.35968 8.91815 6.73968 8.925 7.125V11.475C8.92709 11.8519 9.02878 12.2215 9.21976 12.5464C9.41075 12.8713 9.68423 13.1399 10.0125 13.325ZM11.425 7.6L14.25 9.25L11.4 10.9L11.425 7.6Z" fill="white"/>
</svg>
