<svg width="34" height="20" viewBox="0 0 34 20" fill="none" xmlns="http://www.w3.org/2000/svg">
<path d="M32.8835 1.91667C32.6301 1.77039 32.3427 1.69338 32.0502 1.69338C31.7576 1.69338 31.4702 1.77039 31.2168 1.91667L25.3335 4.81667C25.286 3.52262 24.7383 2.29746 23.8058 1.39907C22.8732 0.500675 21.6284 -0.000869625 20.3335 1.13193e-06H5.3335C4.00741 1.13193e-06 2.73564 0.526785 1.79796 1.46447C0.860281 2.40215 0.333496 3.67392 0.333496 5V15C0.333496 16.3261 0.860281 17.5979 1.79796 18.5355C2.73564 19.4732 4.00741 20 5.3335 20H20.3335C21.6284 20.0009 22.8732 19.4993 23.8058 18.6009C24.7383 17.7025 25.286 16.4774 25.3335 15.1833L31.2668 18.15C31.494 18.2665 31.7449 18.3292 32.0002 18.3333C32.3122 18.3343 32.6183 18.2477 32.8835 18.0833C33.1237 17.9332 33.3217 17.7244 33.4587 17.4765C33.5958 17.2286 33.6674 16.9499 33.6668 16.6667V3.33333C33.6674 3.05009 33.5958 2.77138 33.4587 2.52351C33.3217 2.27564 33.1237 2.06679 32.8835 1.91667ZM22.0002 15C22.0002 15.442 21.8246 15.866 21.512 16.1785C21.1994 16.4911 20.7755 16.6667 20.3335 16.6667H5.3335C4.89147 16.6667 4.46755 16.4911 4.15499 16.1785C3.84242 15.866 3.66683 15.442 3.66683 15V5C3.66683 4.55797 3.84242 4.13405 4.15499 3.82149C4.46755 3.50893 4.89147 3.33333 5.3335 3.33333H20.3335C20.7755 3.33333 21.1994 3.50893 21.512 3.82149C21.8246 4.13405 22.0002 4.55797 22.0002 5V15ZM30.3335 13.9667L25.3335 11.4667V8.53333L30.3335 6.03333V13.9667Z" fill="white"/>
</svg>
