<svg width="14" height="11" viewBox="0 0 14 11" fill="none" xmlns="http://www.w3.org/2000/svg">
<path d="M0.292893 5.7112C0.105357 5.52366 0 5.26931 0 5.00409C0 4.73888 0.105357 4.48452 0.292893 4.29699C0.48043 4.10945 0.734784 4.00409 1 4.00409H10.59L8.29001 1.71409C8.19678 1.62085 8.12281 1.51016 8.07235 1.38834C8.02189 1.26652 7.99592 1.13595 7.99592 1.00409C7.99592 0.872233 8.02189 0.741665 8.07235 0.619843C8.12281 0.498021 8.19678 0.38733 8.29001 0.294092C8.38325 0.200853 8.49394 0.126893 8.61576 0.0764322C8.73759 0.0259719 8.86816 0 9.00001 0C9.13187 0 9.26244 0.0259719 9.38426 0.0764322C9.50609 0.126893 9.61678 0.200853 9.71001 0.294092L13.71 4.29409C13.8011 4.3892 13.8724 4.50134 13.92 4.62409C14.02 4.86755 14.02 5.14063 13.92 5.38409C13.8724 5.50684 13.8011 5.61899 13.71 5.71409L9.71001 9.71409C9.61705 9.80782 9.50645 9.88221 9.38459 9.93298C9.26273 9.98375 9.13203 10.0099 9.00001 10.0099C8.868 10.0099 8.7373 9.98375 8.61544 9.93298C8.49358 9.88221 8.38298 9.80782 8.29001 9.71409C8.19629 9.62113 8.12189 9.51053 8.07112 9.38867C8.02035 9.26681 7.99422 9.1361 7.99422 9.00409C7.99422 8.87208 8.02035 8.74137 8.07112 8.61951C8.12189 8.49765 8.19629 8.38706 8.29001 8.29409L10.59 6.00409H1C0.734784 6.00409 0.48043 5.89873 0.292893 5.7112Z" fill="white"/>
</svg>
