<svg width="28" height="19" viewBox="0 0 28 19" fill="none" xmlns="http://www.w3.org/2000/svg">
<path fill-rule="evenodd" clip-rule="evenodd" d="M2.33317 0C3.25364 0 3.99984 0.746192 3.99984 1.66667V5C3.99984 7.65216 5.05341 10.1957 6.92877 12.0711C8.80413 13.9464 11.3477 15 13.9998 15C16.652 15 19.1955 13.9464 21.0709 12.0711C22.9463 10.1957 23.9998 7.65216 23.9998 5V1.66667C23.9998 0.746192 24.746 0 25.6665 0C26.587 0 27.3332 0.746192 27.3332 1.66667V5C27.3332 8.53622 25.9284 11.9276 23.4279 14.4281C20.9274 16.9286 17.5361 18.3333 13.9998 18.3333C10.4636 18.3333 7.07223 16.9286 4.57175 14.4281C2.07126 11.9276 0.666504 8.53622 0.666504 5V1.66667C0.666504 0.746192 1.4127 0 2.33317 0Z" fill="white"/>
</svg>
