<svg width="28" height="28" viewBox="0 0 28 28" fill="none" xmlns="http://www.w3.org/2000/svg">
<path fill-rule="evenodd" clip-rule="evenodd" d="M13.9998 3.33366C7.97491 3.33366 3.33317 7.9754 3.33317 14.0003C3.33317 20.0253 7.97491 24.667 13.9998 24.667C20.0248 24.667 24.6665 20.0253 24.6665 14.0003C24.6665 7.9754 20.0248 3.33366 13.9998 3.33366ZM0.666504 14.0003C0.666504 6.63653 6.63604 0.666992 13.9998 0.666992C21.3636 0.666992 27.3332 6.63653 27.3332 14.0003C27.3332 21.3641 21.3636 27.3337 13.9998 27.3337C6.63604 27.3337 0.666504 21.3641 0.666504 14.0003ZM13.9998 10.667C14.7362 10.667 15.3332 11.2639 15.3332 12.0003V20.667C15.3332 21.4034 14.7362 22.0003 13.9998 22.0003C13.2635 22.0003 12.6665 21.4034 12.6665 20.667V12.0003C12.6665 11.2639 13.2635 10.667 13.9998 10.667ZM13.9998 6.00033C13.2635 6.00033 12.6665 6.59728 12.6665 7.33366C12.6665 8.07004 13.2635 8.66699 13.9998 8.66699H14.0132C14.7495 8.66699 15.3465 8.07004 15.3465 7.33366C15.3465 6.59728 14.7495 6.00033 14.0132 6.00033H13.9998Z" fill="#FF7506"/>
</svg>
