<svg width="32" height="32" viewBox="0 0 32 32" fill="none" xmlns="http://www.w3.org/2000/svg">
<path d="M27.1198 12.4267L8.45318 3.09334C7.7165 2.72669 6.88466 2.59616 6.07109 2.71954C5.25751 2.84293 4.50179 3.21424 3.90695 3.78283C3.31211 4.35142 2.90711 5.08964 2.74717 5.89682C2.58722 6.70401 2.68011 7.54088 3.01317 8.29334L6.21317 15.4533C6.28578 15.6265 6.32318 15.8123 6.32318 16C6.32318 16.1877 6.28578 16.3736 6.21317 16.5467L3.01317 23.7067C2.74211 24.3156 2.62752 24.9827 2.67981 25.6472C2.73211 26.3117 2.94963 26.9526 3.31262 27.5116C3.6756 28.0707 4.17254 28.5301 4.75827 28.8483C5.344 29.1664 5.99995 29.3332 6.66651 29.3333C7.29082 29.3271 7.90583 29.1813 8.46651 28.9067L27.1332 19.5733C27.7953 19.2403 28.3519 18.7297 28.7408 18.0988C29.1297 17.4678 29.3356 16.7412 29.3356 16C29.3356 15.2588 29.1297 14.5322 28.7408 13.9012C28.3519 13.2703 27.7953 12.7598 27.1332 12.4267H27.1198ZM25.9332 17.1867L7.26651 26.52C7.02139 26.6377 6.74615 26.6776 6.47769 26.6345C6.20923 26.5913 5.96039 26.4671 5.76452 26.2785C5.56866 26.0899 5.43515 25.8459 5.38188 25.5793C5.32862 25.3126 5.35814 25.0361 5.46651 24.7867L8.65317 17.6267C8.69443 17.5311 8.73004 17.4331 8.75984 17.3333H17.9465C18.3001 17.3333 18.6393 17.1929 18.8893 16.9428C19.1394 16.6928 19.2798 16.3536 19.2798 16C19.2798 15.6464 19.1394 15.3072 18.8893 15.0572C18.6393 14.8072 18.3001 14.6667 17.9465 14.6667H8.75984C8.73004 14.5669 8.69443 14.469 8.65317 14.3733L5.46651 7.21334C5.35814 6.96396 5.32862 6.68741 5.38188 6.42077C5.43515 6.15413 5.56866 5.91015 5.76452 5.72154C5.96039 5.53293 6.20923 5.40872 6.47769 5.36554C6.74615 5.32237 7.02139 5.36231 7.26651 5.48001L25.9332 14.8133C26.1516 14.9252 26.3349 15.0952 26.4629 15.3046C26.5908 15.514 26.6586 15.7546 26.6586 16C26.6586 16.2454 26.5908 16.486 26.4629 16.6954C26.3349 16.9048 26.1516 17.0748 25.9332 17.1867Z" fill="#FF7506"/>
</svg>
