<svg width="33" height="32" viewBox="0 0 33 32" fill="none" xmlns="http://www.w3.org/2000/svg">
<g opacity="0.5">
<path d="M24.3995 16.56L16.1595 24.8133C15.0793 25.7733 13.673 26.2843 12.2285 26.2418C10.7839 26.1993 9.41019 25.6064 8.38829 24.5845C7.36638 23.5626 6.77354 22.1889 6.73101 20.7443C6.68849 19.2998 7.1995 17.8935 8.15952 16.8133L18.8262 6.14662C19.463 5.54169 20.3078 5.2044 21.1862 5.2044C22.0645 5.2044 22.9094 5.54169 23.5462 6.14662C24.1667 6.77541 24.5145 7.62325 24.5145 8.50662C24.5145 9.39 24.1667 10.2378 23.5462 10.8666L14.3462 20.0533C14.2551 20.1513 14.1457 20.2305 14.024 20.2863C13.9024 20.342 13.771 20.3732 13.6372 20.3782C13.5035 20.3831 13.3701 20.3617 13.2447 20.3151C13.1193 20.2685 13.0042 20.1977 12.9062 20.1066C12.8081 20.0156 12.729 19.9061 12.6732 19.7845C12.6175 19.6628 12.5862 19.5314 12.5813 19.3977C12.5763 19.264 12.5978 19.1306 12.6444 19.0051C12.691 18.8797 12.7618 18.7647 12.8529 18.6666L19.6929 11.84C19.9439 11.5889 20.085 11.2484 20.085 10.8933C20.085 10.5382 19.9439 10.1977 19.6929 9.94662C19.4418 9.69555 19.1013 9.5545 18.7462 9.5545C18.3911 9.5545 18.0506 9.69555 17.7995 9.94662L10.9595 16.8C10.6173 17.1396 10.3456 17.5436 10.1602 17.9887C9.97485 18.4337 9.87941 18.9111 9.87941 19.3933C9.87941 19.8754 9.97485 20.3528 10.1602 20.7979C10.3456 21.243 10.6173 21.647 10.9595 21.9866C11.6587 22.6526 12.5873 23.0241 13.5529 23.0241C14.5184 23.0241 15.447 22.6526 16.1462 21.9866L25.3329 12.7866C26.3927 11.6492 26.9697 10.1449 26.9423 8.59044C26.9148 7.03604 26.2851 5.55295 25.1858 4.45365C24.0865 3.35435 22.6034 2.72465 21.049 2.69722C19.4946 2.6698 17.9903 3.24678 16.8529 4.30662L6.18619 14.9733C4.74779 16.5664 3.97956 18.6531 4.04157 20.7986C4.10357 22.9441 4.99103 24.9829 6.51904 26.4903C8.04705 27.9977 10.0978 28.8574 12.2439 28.8902C14.39 28.9231 16.4661 28.1265 18.0395 26.6666L26.2929 18.4266C26.4172 18.3023 26.5158 18.1547 26.5831 17.9923C26.6503 17.8299 26.685 17.6558 26.685 17.48C26.685 17.3041 26.6503 17.1301 26.5831 16.9676C26.5158 16.8052 26.4172 16.6576 26.2929 16.5333C26.1685 16.409 26.021 16.3104 25.8585 16.2431C25.6961 16.1758 25.522 16.1412 25.3462 16.1412C25.1704 16.1412 24.9963 16.1758 24.8339 16.2431C24.6714 16.3104 24.5238 16.409 24.3995 16.5333V16.56Z" fill="#C9C4C0"/>
</g>
</svg>
